<svg width="30" height="30" fill="none" xmlns="http://www.w3.org/2000/svg">
<g clip-path="url(#a)">
<path d="M5.388 26.55c-1.354-2.388-.432-6.133 2.369-8.935 3.181-3.18 7.58-3.94 9.826-1.694a.088.088 0 0 0 .008.01c-.45 1.307-1.88 4.09-6.171 5.594-3.93 1.378-5.446 3.57-6.032 5.025zm10.873-6.96c-1.027 1.027-2.485 2.035-4.55 2.76-4.193 1.47-5.365 3.877-5.692 5.043l.044.047c2.245 2.246 6.645 1.487 9.825-1.694 2.83-2.83 3.741-6.623 2.326-9.008a9.143 9.143 0 0 1-1.953 2.853zM7.585 9.246c4.529.397 6.979-1.549 7.927-2.555l-.004-.012c-1.121-2.97-5.442-4.092-9.65-2.504C2.15 5.573-.233 8.606.017 11.34c1.133-1.085 3.417-2.458 7.567-2.095zm2.332 5.688c3.745-1.412 6.137-4.494 5.83-7.25a9.143 9.143 0 0 1-2.955 1.795c-1.358.512-3.102.83-5.283.64-4.426-.389-6.485 1.322-7.264 2.25.008.02.014.041.02.06 1.122 2.972 5.443 4.094 9.652 2.505zm13.108-6.195c2.717-3.646 2.349-6.753 1.99-8.088l-.012-.003c-3.117-.607-6.34 2.48-7.2 6.896-.758 3.89.572 7.51 3.03 8.734-.328-1.534-.296-4.199 2.192-7.54zM25.984.97c.161.85.25 2.041-.026 3.458-.277 1.425-.923 3.076-2.23 4.831-2.656 3.562-2.282 6.213-1.901 7.363l.062.014c3.117.607 6.34-2.48 7.2-6.896.766-3.93-.6-7.584-3.105-8.77z" fill="#000"/></g>
<defs><clipPath id="a"><path fill="#fff" d="M0 0h29.302v29.302H0z"/></clipPath></defs></svg>