<svg width="35" height="35" fill="none" xmlns="http://www.w3.org/2000/svg"><g clip-path="url(#a)" fill="#000"><path d="M.054 26.985c.546 4.56 6.043 8 12.786 8 6.062 0 11.211-2.798 12.524-6.803l.002-.002a6.166 6.166 0 0 0 .314-1.917 5.451 5.451 0 0 0-.041-.587l-.007-.062a7.215 7.215 0 0 0-2.408-4.453 12.313 12.313 0 0 0 4.743 1.041 7.649 7.649 0 0 0 3.88-.974h.001a5.996 5.996 0 0 0 1.246-.942c.28-.285.53-.598.748-.934 2.462-3.705.887-9.93-3.664-14.48C25.964.658 20.17-1.056 16.4.797a6.133 6.133 0 0 0-1.64 1.157 5.917 5.917 0 0 0-.488.569c-2.804 3.61-1.308 10.132 3.407 14.847.466.465.956.904 1.468 1.317a17.545 17.545 0 0 0-6.308-1.146c-6.02 0-11.3 2.892-12.552 6.876A6.158 6.158 0 0 0 0 26.263c.003.241.021.482.054.722zm12.786 6.833c-5.677 0-10.523-2.696-11.488-6.257l.07.007c.208.024.406.05.592.08.027.003.052.008.079.013.173.029.338.06.498.093l.08.016c.17.037.335.075.497.114l.104.026.465.119c1.505.427 3.064.63 4.628.601a15.81 15.81 0 0 0 4.622-.602 14.613 14.613 0 0 1 4.327-.565c1.463-.03 2.922.16 4.33.564l.444.114.104.027c.16.04.324.078.494.115l.064.014c.158.033.323.066.494.096l.09.016c.186.032.383.06.59.087l.054.008c-1.509 3.118-6.03 5.314-11.138 5.314zm16.513-28.12c3.823 3.823 5.424 9.055 3.893 12.335l-.046-.055a13.275 13.275 0 0 1-.426-.525l-.032-.043c-.122-.16-.233-.316-.337-.467l-.051-.074a16.5 16.5 0 0 1-.3-.46l-.055-.088a48.323 48.323 0 0 1-.273-.443 15.846 15.846 0 0 0-2.9-3.65 15.763 15.763 0 0 0-3.737-2.784 14.62 14.62 0 0 1-3.497-2.606 14.644 14.644 0 0 1-2.713-3.416 49.15 49.15 0 0 0-.226-.37l-.06-.095a18.16 18.16 0 0 0-.258-.405l-.032-.047a13.89 13.89 0 0 0-.263-.383l-.064-.09a13.833 13.833 0 0 0-.336-.445c-.009-.01-.015-.02-.023-.03 3.335-1.123 8.125.53 11.736 4.14zM15.587 2.778c.28-.278.594-.52.934-.72l.028.034c.129.157.246.307.355.452l.054.072c.11.148.21.291.304.431l.056.083a16.75 16.75 0 0 1 .312.486l.252.411a15.817 15.817 0 0 0 2.897 3.648 15.78 15.78 0 0 0 3.736 2.784 14.603 14.603 0 0 1 3.498 2.605c1.07.998 1.986 2.15 2.716 3.42l.182.297c.02.034.043.069.064.102l.13.21.08.124a14.528 14.528 0 0 0 .734 1.035c.053.07.11.14.168.212a14.896 14.896 0 0 0 .328.391l.153.176.038.044a4.153 4.153 0 0 1-.337.385 4.464 4.464 0 0 1-.613.508l-.02-.023c-.038-.042-.071-.082-.107-.124-.067-.078-.135-.156-.197-.231l-.11-.138a13.263 13.263 0 0 1-.492-.65l-.124-.181-.083-.122a19.636 19.636 0 0 1-.315-.494l-.058-.094a59.251 59.251 0 0 1-.173-.282 15.876 15.876 0 0 0-2.902-3.652 15.763 15.763 0 0 0-3.737-2.783 14.612 14.612 0 0 1-3.497-2.606 14.68 14.68 0 0 1-2.715-3.418c-.09-.148-.182-.297-.277-.449l-.06-.096a17.656 17.656 0 0 0-.374-.57 13.816 13.816 0 0 0-.367-.509l-.068-.088c-.144-.188-.299-.38-.474-.585l-.004-.006.085-.089zm2.918 13.766c-4.045-4.046-5.573-9.448-3.712-12.704l.042.051c.125.155.242.304.35.448l.057.08c.097.132.188.26.272.387l.047.068c.093.14.182.278.267.415a53.396 53.396 0 0 1 .3.488 15.855 15.855 0 0 0 2.9 3.65 15.772 15.772 0 0 0 3.736 2.782 14.619 14.619 0 0 1 3.498 2.605 14.715 14.715 0 0 1 2.718 3.421c.09.148.181.297.275.448l.066.105c.098.156.2.314.311.477l.069.1c.114.165.235.335.37.513l.018.024c.137.18.293.37.459.567.021.024.037.047.059.072-3.313 1.371-8.357-.253-12.102-3.997zm-5.665 2.163c5.728 0 10.583 2.725 11.503 6.324l-.068-.008c-.212-.023-.414-.05-.602-.08-.025-.003-.048-.008-.073-.012-.173-.028-.338-.06-.497-.092l-.095-.02a16.865 16.865 0 0 1-.488-.111l-.125-.032a52.711 52.711 0 0 1-.453-.115 15.896 15.896 0 0 0-4.628-.601 15.797 15.797 0 0 0-4.622.602 14.634 14.634 0 0 1-4.327.565 14.658 14.658 0 0 1-4.33-.564c-.145-.038-.29-.076-.439-.113l-.122-.03a17.48 17.48 0 0 0-.488-.114l-.082-.017a14.344 14.344 0 0 0-.488-.095l-.093-.017c-.187-.032-.386-.06-.595-.086l-.06-.009c1.477-3.153 6.014-5.375 11.172-5.375zM1.282 25.215l.022.003c.226.023.434.05.633.08l.086.014a12.573 12.573 0 0 1 .65.122c.168.036.331.073.49.112l.11.027.468.12c1.503.428 3.061.631 4.624.602 1.562.03 3.12-.174 4.622-.602a14.613 14.613 0 0 1 4.327-.565c1.465-.029 2.926.161 4.335.564l.312.08.121.03c.072.019.144.037.218.054l.13.031.221.05.142.03c.074.017.15.032.229.047l.152.029c.08.015.163.029.247.043l.158.025c.09.014.186.026.281.04l.156.02c.112.013.229.025.348.037l.127.012.021.003v.04a4.851 4.851 0 0 1-.132 1.112l-.024-.003c-.221-.023-.426-.05-.622-.08-.03-.006-.061-.01-.09-.014a12.707 12.707 0 0 1-.648-.122 17.465 17.465 0 0 1-.483-.112l-.114-.028a52.144 52.144 0 0 1-.462-.118 15.813 15.813 0 0 0-4.623-.602 15.794 15.794 0 0 0-4.622.602 14.634 14.634 0 0 1-4.327.565 14.727 14.727 0 0 1-4.335-.564l-.319-.082-.097-.024-.234-.059-.134-.031a17.03 17.03 0 0 0-.213-.049l-.152-.032a16.089 16.089 0 0 0-.607-.114l-.18-.029a10.484 10.484 0 0 0-.245-.034l-.193-.026-.284-.03-.188-.019-.015-.001a4.91 4.91 0 0 1 .113-1.154z"/><path d="M6.688 30.118a9.067 9.067 0 0 1-.684-.39.584.584 0 0 0-.621.987c.242.153.499.3.768.44a.584.584 0 0 0 .537-1.037zM20.45 29.168c-1.824 1.471-4.598 2.315-7.61 2.315a14.486 14.486 0 0 1-4.488-.675.583.583 0 0 0-.362 1.11c1.568.498 3.205.745 4.85.733 3.274 0 6.314-.939 8.343-2.575a.584.584 0 0 0-.733-.908zM16.69 9.213a9.215 9.215 0 0 1-.164-.681.584.584 0 0 0-1.145.229c.05.252.112.507.184.766a.584.584 0 0 0 1.124-.314zM28.133 19.292a.583.583 0 0 0-.546-.619c-2.4-.147-5.248-1.596-7.43-3.78a14.198 14.198 0 0 1-2.709-3.723.584.584 0 0 0-1.046.518 15.37 15.37 0 0 0 2.929 4.031c2.412 2.412 5.471 3.953 8.184 4.12h.036c.308 0 .563-.24.582-.547z"/></g><defs><clipPath id="a"><path fill="#fff" d="M0 0h35v35H0z"/></clipPath></defs></svg>